# xmcd
#
# Track frame offsets:
#	150
#	10430
#	20230
#	29555
#	42200
#	53990
#	62355
#	71455
#	84450
#	93215
#	103142
#	114362
#	124052
#	132620
#	144267
#	155002
#	171332
#	186184
#	200407
#	209847
#	218542
#	227292
#	236464
#	250179
#	261154
#	270854
#	281589
#	292764
#	303474
#	316549
#
# Disc length: 4486 seconds
#
# Revision: 3
# Processed by: cddbd v1.4PL0 Copyright (c) Steve Scherf et al.
# Submitted via: EasyCDDAExtractor 4.6.0.1
#
DISCID=a911841e
DTITLE=Elvis Presley
DYEAR=1900
DGENRE=Blues
TTITLE0=My Baby Left Me
TTITLE1=Heartbreak Hotel
TTITLE2=Blue Suede Shoes
TTITLE3=Love Me Tender
TTITLE4=Got A Lot O' Livin' To Do!
TTITLE5=(Let Me Be Your) Teddy Bear
TTITLE6=I'm All Snook Up
TTITLE7=Don't
TTITLE8=Hard Headed Woman
TTITLE9=King Creole
TTITLE10=Jailhouse Rock
TTITLE11=A Big Hunk O' Love
TTITLE12=I Got Stung
TTITLE13=One Night
TTITLE14=Stuck On You
TTITLE15=Fever
TTITLE16=It's Now Or Never
TTITLE17=Are You Lonesome Tonight?
TTITLE18=Wooden Heart
TTITLE19=Surrender
TTITLE20=Wild In The Country
TTITLE21=Rock-A-Hula Baby
TTITLE22=Can't Help Falling In Love
TTITLE23=Good Luck Charm
TTITLE24=Return To Sender
TTITLE25=You're The Devil In Disguise
TTITLE26=Crying In The Chapel
TTITLE27=Guitar Man
TTITLE28=In The Ghetto
TTITLE29=Suspicious Minds
EXTD=
EXTT0=
EXTT1=
EXTT2=
EXTT3=
EXTT4=
EXTT5=
EXTT6=
EXTT7=
EXTT8=
EXTT9=
EXTT10=
EXTT11=
EXTT12=
EXTT13=
EXTT14=
EXTT15=
EXTT16=
EXTT17=
EXTT18=
EXTT19=
EXTT20=
EXTT21=
EXTT22=
EXTT23=
EXTT24=
EXTT25=
EXTT26=
EXTT27=
EXTT28=
EXTT29=
PLAYORDER=
